<svg viewBox="0 0 400 300" xmlns="http://www.w3.org/2000/svg">
  <defs>
    <radialGradient id="glowGradient" cx="50%" cy="50%" r="50%">
      <stop offset="0%" style="stop-color:#ffffff;stop-opacity:0.9">
        <animate attributeName="stop-opacity" values="0.9;0.7;0.9" dur="3s" repeatCount="indefinite"/>
      </stop>
      <stop offset="100%" style="stop-color:#f8fafc;stop-opacity:0"/>
    </radialGradient>
    
    <linearGradient id="scanLine" x1="0%" y1="0%" x2="0%" y2="100%">
      <stop offset="0%" style="stop-color:rgba(255,255,255,0)"/>
      <stop offset="50%" style="stop-color:rgba(255,255,255,0.8)"/>
      <stop offset="100%" style="stop-color:rgba(255,255,255,0)"/>
    </linearGradient>

    <filter id="glow" x="-50%" y="-50%" width="200%" height="200%">
      <feGaussianBlur stdDeviation="4" result="coloredBlur"/>
      <feMerge>
        <feMergeNode in="coloredBlur"/>
        <feMergeNode in="SourceGraphic"/>
      </feMerge>
    </filter>

    <!-- Circuit Pattern -->
    <pattern id="circuitPattern" x="0" y="0" width="40" height="40" patternUnits="userSpaceOnUse">
      <path d="M0,20 h40 M20,0 v40 M10,10 h20 v20 h-20 z" 
            fill="none" 
            stroke="#ffffff" 
            stroke-width="0.5" 
            opacity="0.3"/>
    </pattern>
  </defs>

  <!-- Background -->
  <circle cx="200" cy="150" r="120" fill="url(#glowGradient)">
    <animate attributeName="r" values="120;125;120" dur="4s" repeatCount="indefinite"/>
  </circle>

  <!-- Tech Side Elements (replacing wings) -->
  <g filter="url(#glow)" opacity="0.7">
    <!-- Left Side Tech -->
    <path d="M140,120 L100,120 L80,150 L100,180 L140,180" 
          fill="none" 
          stroke="#ffffff" 
          stroke-width="2">
      <animate attributeName="stroke-dasharray" 
               values="0,500;500,0" 
               dur="3s" 
               repeatCount="indefinite"/>
    </path>
    <path d="M135,130 L105,130 L90,150 L105,170 L135,170" 
          fill="url(#circuitPattern)"/>
    
    <!-- Right Side Tech -->
    <path d="M260,120 L300,120 L320,150 L300,180 L260,180" 
          fill="none" 
          stroke="#ffffff" 
          stroke-width="2">
      <animate attributeName="stroke-dasharray" 
               values="0,500;500,0" 
               dur="3s" 
               repeatCount="indefinite"/>
    </path>
    <path d="M265,130 L295,130 L310,150 L295,170 L265,170" 
          fill="url(#circuitPattern)"/>

    <!-- Connecting Lines -->
    <g opacity="0.5">
      <line x1="140" y1="120" x2="160" y2="120" stroke="#ffffff">
        <animate attributeName="opacity" values="0.2;1;0.2" dur="2s" repeatCount="indefinite"/>
      </line>
      <line x1="140" y1="180" x2="160" y2="180" stroke="#ffffff">
        <animate attributeName="opacity" values="0.2;1;0.2" dur="2s" repeatCount="indefinite" begin="0.5s"/>
      </line>
      <line x1="260" y1="120" x2="240" y2="120" stroke="#ffffff">
        <animate attributeName="opacity" values="0.2;1;0.2" dur="2s" repeatCount="indefinite" begin="1s"/>
      </line>
      <line x1="260" y1="180" x2="240" y2="180" stroke="#ffffff">
        <animate attributeName="opacity" values="0.2;1;0.2" dur="2s" repeatCount="indefinite" begin="1.5s"/>
      </line>
    </g>
  </g>

  <!-- Main Shield -->
  <path d="M160 80 L240 80 L260 150 L200 220 L140 150 Z" 
        fill="#111111" 
        stroke="#ffffff" 
        stroke-width="4"
        filter="url(#glow)">
    <animate attributeName="stroke-dasharray" 
             values="0,1000;1000,0" 
             dur="3s" 
             repeatCount="indefinite"/>
  </path>

  <!-- Scan Lines -->
  <g>
    <rect x="140" y="100" width="120" height="100" 
          fill="url(#scanLine)" opacity="0.3">
      <animate attributeName="y" 
               from="80" to="180" 
               dur="2s" 
               repeatCount="indefinite"/>
    </rect>
    <rect x="140" y="100" width="120" height="100" 
          fill="url(#scanLine)" opacity="0.2">
      <animate attributeName="y" 
               from="180" to="80" 
               dur="2s" 
               repeatCount="indefinite"/>
    </rect>
  </g>

  <!-- Grid -->
  <path d="M170 120 L230 120 M170 150 L230 150 M170 180 L230 180
           M180 110 L180 190 M200 110 L200 190 M220 110 L220 190" 
        stroke="#ffffff" 
        stroke-width="1" 
        opacity="0.5">
    <animate attributeName="opacity" 
             values="0.5;0.8;0.5" 
             dur="2s" 
             repeatCount="indefinite"/>
  </path>

  <!-- Center Eye -->
  <g filter="url(#glow)">
    <circle cx="200" cy="140" r="15" 
            fill="#ffffff">
      <animate attributeName="r" 
               values="15;16;15" 
               dur="2s" 
               repeatCount="indefinite"/>
    </circle>
    <circle cx="200" cy="140" r="7" 
            fill="#111111"/>
  </g>

  <!-- Data Points -->
  <g>
    <circle cx="90" cy="150" r="2" fill="#ffffff" opacity="0.8">
      <animate attributeName="opacity" values="0;1;0" dur="1.5s" repeatCount="indefinite"/>
    </circle>
    <circle cx="310" cy="150" r="2" fill="#ffffff" opacity="0.8">
      <animate attributeName="opacity" values="0;1;0" dur="1.5s" repeatCount="indefinite" begin="0.75s"/>
    </circle>
  </g>

  <!-- Logo Text -->
  <text x="200" y="250" 
        font-family="Arial" 
        font-weight="bold" 
        font-size="24" 
        fill="#ffffff" 
        text-anchor="middle" 
        filter="url(#glow)">
    NightScan
  </text>
</svg>